<?xml version="1.0" encoding="UTF-8" standalone="no"?>
<!-- Created with Inkscape (http://www.inkscape.org/) -->

<svg
   xmlns:dc="http://purl.org/dc/elements/1.1/"
   xmlns:cc="http://creativecommons.org/ns#"
   xmlns:rdf="http://www.w3.org/1999/02/22-rdf-syntax-ns#"
   xmlns:svg="http://www.w3.org/2000/svg"
   xmlns="http://www.w3.org/2000/svg"
   xmlns:sodipodi="http://sodipodi.sourceforge.net/DTD/sodipodi-0.dtd"
   xmlns:inkscape="http://www.inkscape.org/namespaces/inkscape"
   width="1087"
   height="604"
   viewBox="0 0 287.60208 159.80834"
   version="1.1"
   id="svg8"
   inkscape:version="0.92.4 (unknown)"
   sodipodi:docname="not-image.svg">
  <defs
     id="defs2">
    <filter
       style="color-interpolation-filters:sRGB;"
       inkscape:label="Drop Shadow"
       id="filter1326">
      <feFlood
         flood-opacity="0.498039"
         flood-color="rgb(0,0,0)"
         result="flood"
         id="feFlood1316" />
      <feComposite
         in="SourceGraphic"
         in2="flood"
         operator="in"
         result="composite1"
         id="feComposite1318" />
      <feGaussianBlur
         in="composite1"
         stdDeviation="41.7112"
         result="blur"
         id="feGaussianBlur1320" />
      <feOffset
         dx="32.9"
         dy="35.8"
         result="offset"
         id="feOffset1322" />
      <feComposite
         in="SourceGraphic"
         in2="offset"
         operator="over"
         result="fbSourceGraphic"
         id="feComposite1324" />
      <feColorMatrix
         result="fbSourceGraphicAlpha"
         in="fbSourceGraphic"
         values="0 0 0 -1 0 0 0 0 -1 0 0 0 0 -1 0 0 0 0 1 0"
         id="feColorMatrix1328" />
      <feFlood
         id="feFlood1330"
         flood-opacity="0.498039"
         flood-color="rgb(0,0,0)"
         result="flood"
         in="fbSourceGraphic" />
      <feComposite
         in2="flood"
         id="feComposite1332"
         in="fbSourceGraphic"
         operator="in"
         result="composite1" />
      <feGaussianBlur
         id="feGaussianBlur1334"
         in="composite1"
         stdDeviation="41.7"
         result="blur" />
      <feOffset
         id="feOffset1336"
         dx="32.9"
         dy="35.8"
         result="offset" />
      <feComposite
         in2="offset"
         id="feComposite1338"
         in="fbSourceGraphic"
         operator="over"
         result="composite2" />
    </filter>
    <filter
       inkscape:menu-tooltip="In and out glow with a possible offset and colorizable flood"
       inkscape:menu="Shadows and Glows"
       inkscape:label="Cutout Glow"
       style="color-interpolation-filters:sRGB;"
       id="filter1350">
      <feOffset
         dy="3"
         dx="3"
         id="feOffset1340" />
      <feGaussianBlur
         stdDeviation="3"
         result="blur"
         id="feGaussianBlur1342" />
      <feFlood
         flood-color="rgb(0,0,0)"
         flood-opacity="1"
         result="flood"
         id="feFlood1344" />
      <feComposite
         in="flood"
         in2="SourceGraphic"
         operator="in"
         result="composite"
         id="feComposite1346" />
      <feBlend
         in="blur"
         in2="composite"
         mode="normal"
         id="feBlend1348" />
    </filter>
  </defs>
  <sodipodi:namedview
     id="base"
     pagecolor="#ffffff"
     bordercolor="#666666"
     borderopacity="1.0"
     inkscape:pageopacity="0.0"
     inkscape:pageshadow="2"
     inkscape:zoom="0.47167969"
     inkscape:cx="467.22656"
     inkscape:cy="174.10279"
     inkscape:document-units="mm"
     inkscape:current-layer="layer1"
     showgrid="false"
     fit-margin-top="0"
     fit-margin-left="0"
     fit-margin-right="0"
     fit-margin-bottom="0"
     units="px"
     inkscape:window-width="1403"
     inkscape:window-height="876"
     inkscape:window-x="37"
     inkscape:window-y="86"
     inkscape:window-maximized="1" />
  <metadata
     id="metadata5">
    <rdf:RDF>
      <cc:Work
         rdf:about="">
        <dc:format>image/svg+xml</dc:format>
        <dc:type
           rdf:resource="http://purl.org/dc/dcmitype/StillImage" />
        <dc:title></dc:title>
      </cc:Work>
    </rdf:RDF>
  </metadata>
  <g
     inkscape:label="Capa 1"
     inkscape:groupmode="layer"
     id="layer1"
     transform="translate(0,-137.19165)">
    <g
       id="g1360"
       inkscape:export-xdpi="96"
       inkscape:export-ydpi="96">
      <rect
         y="136.64165"
         x="0.55000001"
         height="159.80833"
         width="287.60208"
         id="rect815"
         style="fill:#fce3e3;fill-opacity:1;stroke:none;stroke-width:1.10000002;stroke-miterlimit:4;stroke-dasharray:none;stroke-opacity:0.55937499" />
      <g
         style="stroke:#e1e2e1;stroke-opacity:0.56078434;fill:#000000;fill-opacity:0.33725491;fill-rule:nonzero;filter:url(#filter1326)"
         transform="matrix(0.11777825,0,0,0.11777825,100.89883,152.20654)"
         id="g832">
        <g
           style="stroke:#e1e2e1;stroke-opacity:0.56078434;fill:#000000;fill-opacity:0.33725491;fill-rule:nonzero"
           id="icomoon-ignore" />
        <path
           id="path820"
           d="m 288,128 h 174.88 l 54.496,81.76 c 6.144,9.184 16.192,14.176 26.624,14.24 h 128 c 8.832,0 16.8,3.552 22.624,9.376 C 700.448,239.2 704,247.168 704,256 v 298.88 c 0,17.664 14.336,32 32,32 17.664,0 32,-14.336 32,-32 V 256 C 768,229.504 757.216,205.44 739.872,188.128 722.528,170.816 698.496,160 672,160 H 561.12 L 506.624,78.24 C 500.8,69.6 491.072,64 480,64 H 288 c -17.664,0 -32,14.336 -32,32 0,17.664 14.336,32 32,32 z m -23.616,181.632 c -4.672,5.216 -9.056,10.784 -13.088,16.704 -24.96,36.448 -32.736,79.648 -25.216,119.84 7.52,40.192 30.464,77.632 66.912,102.56 36.448,24.928 79.648,32.736 119.84,25.216 28.384,-5.312 55.36,-18.304 77.568,-38.304 L 594.752,640 H 96 C 87.168,640 79.2,636.448 73.376,630.624 67.552,624.8 64,616.832 64,608 V 256 c 0,-8.832 3.552,-16.8 9.376,-22.624 C 79.2,227.552 87.168,224 96,224 h 82.752 z M 333.216,287.936 54.624,9.376 c -12.512,-12.512 -32.768,-12.512 -45.248,0 -12.48,12.512 -12.512,32.768 0,45.248 L 114.752,160 H 96 C 69.504,160 45.44,170.784 28.128,188.128 10.816,205.472 0,229.504 0,256 v 352 c 0,26.496 10.784,50.56 28.128,67.872 C 45.472,693.184 69.504,704 96,704 h 562.752 l 54.624,54.624 c 12.512,12.512 32.768,12.512 45.248,0 12.48,-12.512 12.512,-32.768 0,-45.248 L 334.048,288.8 Z m 111.808,202.336 c -12.8,10.752 -28,17.76 -44,20.768 -24.192,4.544 -50.016,-0.16 -71.904,-15.136 -21.888,-14.976 -35.616,-37.344 -40.16,-61.536 -4.544,-24.192 0.16,-50.016 15.136,-71.904 1.792,-2.624 3.68,-5.12 5.632,-7.456 z"
           inkscape:connector-curvature="0"
           style="fill:#000000;opacity:1;stroke:#e1e2e1;stroke-opacity:0.56078434;fill-opacity:0.33725491;fill-rule:nonzero" />
      </g>
      <flowRoot
         transform="matrix(0.26458333,0,0,0.26458333,3.3656315,141.67915)"
         style="font-style:normal;font-weight:normal;font-size:40px;line-height:1.25;font-family:sans-serif;letter-spacing:0px;word-spacing:0px;fill:#000000;fill-opacity:0.33725491;stroke:none;filter:url(#filter1350)"
         id="flowRoot844"
         xml:space="preserve"><flowRegion
           style="fill:#000000;fill-opacity:0.33725491;"
           id="flowRegion846"><rect
             style="fill:#000000;fill-opacity:0.33725491;"
             y="432.27328"
             x="161.1263"
             height="131.44513"
             width="845.91302"
             id="rect848" /></flowRegion><flowPara
           style="font-style:normal;font-variant:normal;font-weight:bold;font-stretch:normal;font-size:96px;font-family:Laksaman;-inkscape-font-specification:'Laksaman Bold';fill:#000000;fill-opacity:0.33725491;"
           id="flowPara850">Image not found</flowPara></flowRoot>    </g>
  </g>
</svg>
