<svg width="50" height="35.164" viewBox="0 0 13.229 9.304" xmlns="http://www.w3.org/2000/svg"><g aria-label="MR" style="font-size:17.6389px;font-family:'Dawning of a New Day';-inkscape-font-specification:'Dawning of a New Day';stroke:#fff;stroke-width:.264583;stroke-opacity:0" stroke="none"><g style="fill:#fff"><path style="color:#000;-inkscape-font-specification:'Dawning of a New Day';fill:#fff;stroke:none;stroke-opacity:1;-inkscape-stroke:none" d="m39.615 33.702-.017.758v.224q-.517 3.583-.655 4.065.345-.602 1.189-2.204.844-1.602 1.378-2.533.534-.947 1.31-1.843.774-.913 1.412-1.033.758 0 .758 2.308v.43q-.018 1.224-.397 3.652-.568 3.79-.568 4.772 0 .965.103 1.809.12.844.534 1.843.862 2.067 3.738 2.55.465-.173.551-.173.087 0 .087.017 0 .155-.534.345-.517.189-.69.189-.154 0-.24-.034-1.689 0-2.688-1.223-.878-1.103-1.223-2.688-.051-.671-.051-1.998 0-1.343.344-4.582.345-3.238.379-4.478l-.017-1.327q-.052-.5-.241-.5-1.55 1.206-2.79 3.463-.673 1.223-.948 1.774-.259.551-.655 1.413-.568 1.24-1.223 3.324-.138.138-.293.138-.155 0-.206-.138 0-1.016 1.154-7.82-.104-.517-.534-.12-.12.103-1.723 2.135-1.602 2.016-1.98 2.532-.07.19-.414 1.378-.327 1.172-.396 1.378-.276.862-.913 1.516-.62.638-1.378.638-.603 0-.638-.207-.017-.103-.017-.31 0-.551.327-.982 2.946-3.566 3.256-5.202.138-.138.138-1.705 0-1.568-.12-1.568-.018 0-.018.017l-3.17 1.31q-.103 0-.189-.07-.069-.086-.069-.189 0-.19.586-.327l.24-.07q.173-.085.759-.412 1.309-.724 1.843-.758.344 0 .448.172.103.155.138.258.051.086.069.276.017.172.017.275.017.087 0 .293v.448q0 .224-.086 1.171-.087.93-.087 1.534 2.929-3.842 3.532-4.393.258-.241.413-.241.172 0 .241.12.07.121.224.603zM31.76 43.16q.465 0 .948-.482.482-.5.706-1l.31-.774q.293-.793.345-1.017V39.8q-.035.052-.328.396-.293.328-.5.569-.189.224-.499.62t-.5.689q-.482.723-.482 1.085z" transform="matrix(.51671 0 0 .51671 -16.013 -16.02)"/><path style="color:#000;-inkscape-font-specification:'Dawning of a New Day';fill:#fff;fill-opacity:0;stroke:none;stroke-opacity:1;-inkscape-stroke:none" d="m44.219 31.004-.012.002c-.475.09-.962.458-1.488 1.078a11.441 11.441 0 0 0-1.324 1.863 84.081 84.081 0 0 0-1.38 2.535c-.373.71-.562 1.049-.788 1.463.03-.17.043-.2.08-.431.109-.68.25-1.616.422-2.81l.002-.01v-.233l.021-.95-.06.022c-.073-.217-.136-.413-.186-.5a.403.403 0 0 0-.356-.187c-.172 0-.322.107-.503.277-.219.2-.608.655-1.198 1.389-.524.652-1.258 1.601-2.088 2.685.012-.332.021-.657.063-1.105.057-.633.086-1.018.086-1.184v-.447a1.205 1.205 0 0 0-.002-.32 2.993 2.993 0 0 0-.016-.262.758.758 0 0 0-.088-.33 1.275 1.275 0 0 0-.138-.262c-.103-.169-.31-.234-.56-.234H34.696c-.408.026-1.02.29-1.898.775-.388.217-.64.353-.75.408l-.004.002-.211.059a1.872 1.872 0 0 0-.475.164c-.116.065-.213.162-.213.293 0 .098.036.194.098.271l.008.012.012.008c.077.062.175.1.273.1h.026l3.091-1.278c.01.055.02.119.028.22.02.255.029.644.029 1.165 0 .52-.01.921-.033 1.2a2.79 2.79 0 0 1-.041.321c-.016.074-.045.114-.024.092l-.029.028-.008.04c-.196 1.034-1.27 2.772-3.228 5.143l-.002.002v.002a1.724 1.724 0 0 0-.356 1.063c0 .141.006.249.02.332.021.13.136.216.265.258.13.042.294.058.502.058.543 0 1.04-.233 1.473-.678.438-.45.753-.974.943-1.566.05-.15.181-.603.399-1.383v-.002c.226-.78.362-1.232.404-1.35.252-.342.906-1.178 1.967-2.513.534-.677.944-1.194 1.23-1.549.144-.178.255-.316.336-.412.081-.097.145-.162.139-.156l.002-.002.002-.002c.131-.12.217-.138.23-.135.007.001.012.002.03.03a.506.506 0 0 1 .049.136 267.7 267.7 0 0 0-.862 5.33c-.192 1.305-.289 2.119-.289 2.482v.026l.008.021c.05.133.187.225.33.225a.554.554 0 0 0 .387-.178l.023-.021.01-.032c.435-1.385.842-2.49 1.217-3.308v-.002c.263-.572.48-1.042.652-1.408l.002-.002c.182-.364.497-.954.943-1.768.805-1.464 1.711-2.568 2.704-3.355.004.007 0-.002.007.011.029.06.056.174.073.332l.017 1.315c-.023.818-.15 2.308-.379 4.463-.23 2.16-.345 3.688-.345 4.595 0 .886.017 1.554.052 2.008v.01l.002.008c.234 1.073.65 1.99 1.25 2.742v.002c.678.83 1.609 1.248 2.74 1.262a.787.787 0 0 0 .291.043c.164 0 .386-.07.733-.198.183-.065.326-.126.43-.193.104-.067.193-.148.193-.275l-.025-.08a.159.159 0 0 0-.045-.041c-.026-.016-.043-.019-.059-.022-.03-.006-.057-.006-.09-.006-.072 0-.125.02-.22.05a7.825 7.825 0 0 0-.334.114c-1.872-.32-3.06-1.135-3.612-2.46-.272-.658-.446-1.26-.525-1.81v-.001a14.755 14.755 0 0 1-.102-1.79c0-.628.188-2.226.567-4.751.253-1.622.385-2.842.396-3.67v-.434c0-.776-.06-1.362-.195-1.771a1.217 1.217 0 0 0-.268-.485.596.596 0 0 0-.425-.183zm.027.27a.304.304 0 0 1 .223.099c.074.075.146.201.205.38.118.36.183.928.183 1.69v.43c-.01.803-.142 2.017-.394 3.633-.38 2.528-.57 4.113-.57 4.793 0 .648.033 1.255.103 1.824h.002v.002c.082.576.264 1.201.543 1.875.585 1.404 1.87 2.27 3.773 2.606-.225.073-.448.14-.5.14a.57.57 0 0 1-.19-.025l-.024-.01h-.026c-1.093 0-1.943-.387-2.586-1.174-.57-.716-.967-1.592-1.193-2.629a28.33 28.33 0 0 1-.05-1.972c0-.885.113-2.412.343-4.569.23-2.16.356-3.652.379-4.488v-.004l-.018-1.334v-.006a1.281 1.281 0 0 0-.097-.42c-.052-.107-.155-.199-.276-.199h-.045l-.035.027c-1.051.818-1.993 1.988-2.826 3.504a58.438 58.438 0 0 0-.95 1.78l-.001.002c-.173.367-.39.84-.655 1.414-.377.823-.784 1.928-1.214 3.295-.066.06-.123.09-.182.09-.055 0-.057-.012-.07-.044.002-.324.094-1.124.283-2.406.192-1.302.48-3.086.865-5.353l.004-.026-.004-.023a.702.702 0 0 0-.092-.246.324.324 0 0 0-.195-.145c-.165-.037-.31.056-.467.2-.045.039-.083.086-.164.183-.083.099-.196.238-.34.416-.287.357-.698.873-1.232 1.55-1.068 1.345-1.728 2.188-1.985 2.538l-.011.014-.006.02a36.66 36.66 0 0 0-.416 1.384v.002c-.218.78-.353 1.245-.395 1.37v.003a3.68 3.68 0 0 1-.883 1.465c-.394.405-.815.597-1.283.597a1.48 1.48 0 0 1-.42-.046c-.083-.027-.084-.044-.086-.051a1.973 1.973 0 0 1-.015-.287c0-.34.097-.634.297-.899l.002-.002v-.002c1.966-2.38 3.063-4.11 3.28-5.258l-.036.069c.067-.068.078-.133.097-.225.02-.091.034-.208.045-.353.024-.291.036-.697.036-1.221 0-.524-.011-.918-.032-1.186a2.188 2.188 0 0 0-.04-.312.41.41 0 0 0-.038-.108.18.18 0 0 0-.043-.054.164.164 0 0 0-.101-.04c-.018 0-.043.017-.067.028-.014.007-.026.003-.039.016l-3.094 1.277a.154.154 0 0 1-.078-.027.155.155 0 0 1-.035-.092c0 .005 0-.019.078-.063.079-.044.218-.092.407-.136h.002l.255-.075.012-.005c.121-.061.373-.198.764-.416.865-.478 1.479-.718 1.783-.739.2.002.295.048.33.106l.002.002v.004c.065.097.106.176.123.226l.004.014.008.012c.016.026.04.104.05.22.012.113.018.202.018.264v.012l.002.013c.006.03.01.124-.002.256v.459c0 .133-.028.53-.086 1.16a17.443 17.443 0 0 0-.088 1.545v.39l.239-.31a156.88 156.88 0 0 1 2.345-3.017c.588-.73.986-1.19 1.17-1.358v-.002c.163-.151.29-.205.324-.205.084 0 .105.016.127.055.029.05.107.256.205.559l-.017.734v.225c-.17 1.183-.312 2.115-.42 2.787-.109.676-.188 1.102-.229 1.242l.243.101c.231-.405.626-1.14 1.19-2.209a83.095 83.095 0 0 1 1.376-2.527c.351-.623.783-1.231 1.295-1.822.503-.593.953-.909 1.326-.983zm-10.045 8.09-.242.363a5.716 5.716 0 0 1-.092.113c-.054.065-.129.157-.226.271-.195.217-.363.406-.5.567v.002a22.02 22.02 0 0 0-.502.623c-.209.266-.379.499-.508.699-.326.49-.502.857-.502 1.156v.133h.13c.357 0 .705-.185 1.042-.521h.002c.33-.342.575-.687.732-1.038v-.003l.313-.78c.195-.53.31-.864.35-1.033l.003-.014zm-.435 1.005c-.057.167-.071.231-.166.488l-.307.766a3.426 3.426 0 0 1-.68.961c-.216.216-.407.253-.601.312.056-.198.107-.398.342-.75a9.58 9.58 0 0 1 .492-.68c.205-.262.371-.467.496-.614v-.002c.116-.136.265-.303.424-.48z" fill="none" transform="matrix(.51671 0 0 .51671 -16.013 -16.02)"/></g><g style="fill:#fff"><path style="color:#000;-inkscape-font-specification:'Dawning of a New Day';fill:#fff;stroke:none;stroke-opacity:1;-inkscape-stroke:none" d="M53.878 30.998q.637 0 .637.81t-.81 2.17q-1.016 1.757-2.29 2.48-.483.276-.93.328.602.534 1.946 3.393.465.982 1.12 1.774.654.776 1.292.776 1.309 0 1.86-.862 0 1.275-2.033 1.499-.775-.035-1.412-.724-.62-.689-1.051-1.619-.413-.93-.844-1.826-.43-.895-1.016-1.378-.569-.5-1.172-.5-.172 0-.361.035-.707 3.307-.948 4.203-.24.879-.327 1.275-.086.396-.241.672-.138.275-.172.327-.018.052-.19.172-.172.138-.207.172-.964-.034-.964-1.257 0-1.223.947-3.876l.724-1.963q.913-2.412 1.085-3.394 0-.551-.138-.723-.12-.19-.293-.12-.172.068-.5.24-.31.172-.533.207v-.413q.086-.138.637-.483.551-.344.74-.344.362 0 .552.792.19.775.19 1.516.103-.31 1.326-1.344 2.394-2.015 3.376-2.015zm-5.822 6.08q-.638.793-1.206 2.808-.569 2.016-.569 3.17.087.379.224.379.19 0 .5-.775.655-1.654.965-4.048.103-.741.103-1.068 0-.328-.017-.465zm6.098-4.943q0-.414-.362-.414-.104 0-.414.07-.292.068-1.12.602-.344.345-1.119.948-.758.585-1.24.999-.465.396-.775.913-.31.5-.31.792 0 .276.034.413.345.138.724.138.792 0 1.722-.62 1.344-.93 2.205-2.256.655-1 .655-1.585z" transform="matrix(.51671 0 0 .51671 -16.139 -14.48)"/><path style="color:#000;-inkscape-font-specification:'Dawning of a New Day';fill:#fff;fill-opacity:0;stroke:none;stroke-opacity:1;-inkscape-stroke:none" d="M53.877 30.865c-.373 0-.83.182-1.402.524-.573.341-1.257.848-2.059 1.523-.41.346-.725.633-.951.861-.108.11-.13.174-.197.258-.022-.402-.051-.805-.153-1.22-.065-.274-.146-.485-.254-.64-.107-.153-.257-.255-.425-.255-.104 0-.205.039-.336.1-.132.06-.29.149-.477.265a6.199 6.199 0 0 0-.443.3.897.897 0 0 0-.235.224l-.021.033v.605l.152-.023c.172-.027.362-.102.576-.22l.002-.003a5.63 5.63 0 0 1 .485-.232c.033-.013.045-.012.06-.006.016.006.042.026.073.074l.003.006.004.006c.048.06.106.284.108.629-.113.635-.47 1.758-1.074 3.357v.002c-.23.62-.472 1.274-.725 1.963v.002c-.634 1.775-.955 3.07-.955 3.92 0 .425.081.763.267 1.006.186.242.475.372.825.385l.056.002.041-.041a6.23 6.23 0 0 1 .198-.162l-.008.003a1.49 1.49 0 0 0 .146-.113c.039-.035.072-.06.094-.125.036-.058.08-.143.16-.305.112-.198.196-.435.256-.709.056-.258.166-.682.326-1.267.16-.592.475-1.996.928-4.115.087-.013.174-.026.254-.026.365 0 .722.15 1.084.467l.002.002v.002c.372.306.701.748.982 1.332.287.596.567 1.203.842 1.822v.002h.002c.292.631.65 1.183 1.072 1.653v.002c.443.478.95.74 1.504.765h.022c.69-.076 1.22-.24 1.588-.511.336-.248.485-.614.515-1.024.007-.01.02-.013.026-.023l-.014-.004c.001-.028.035-.04.035-.069v-.45l-.244.38c-.342.534-.906.799-1.75.799-.371 0-.767-.228-1.19-.729a8.311 8.311 0 0 1-1.101-1.744 32.755 32.755 0 0 0-1.164-2.287c-.28-.489-.494-.769-.697-.984a2.59 2.59 0 0 0 .79-.277c.877-.498 1.655-1.344 2.34-2.53.546-.917.829-1.654.829-2.238 0-.287-.057-.519-.19-.688-.133-.168-.341-.253-.582-.253zm0 .266c.184 0 .295.049.375.15.08.102.13.273.13.526 0 .068-.099.214-.109.29-.006-.138-.03-.266-.11-.359a.482.482 0 0 0-.372-.148c-.098 0-.232.026-.441.072h-.002c-.243.057-.606.26-1.16.62l-.012.007-.01.01c-.222.222-.593.537-1.107.937-.507.392-.922.725-1.247 1.002-.32.273-.588.59-.802.948-.212.341-.328.618-.328.859 0 .19.01.333.039.445l.015.067.063.025c.245.098.505.147.773.147.563 0 1.16-.22 1.795-.643h.002v-.002a8.214 8.214 0 0 0 2.24-2.291v-.002c.225-.342.23-.562.344-.84-.13.329-.118.55-.361.96v.001c-.67 1.157-1.42 1.965-2.242 2.432-.31.176-.604.278-.881.31l-.293.033.22.198c.176.155.44.521.762 1.082.322.56.706 1.318 1.153 2.27a8.582 8.582 0 0 0 1.138 1.8v.002c.45.533.914.822 1.393.822.62 0 1.088-.199 1.476-.49-.074.129-.063.301-.2.402-.308.227-.794.384-1.45.457-.476-.023-.907-.24-1.313-.677a6.328 6.328 0 0 1-1.027-1.584l-.002-.002a67.295 67.295 0 0 0-.844-1.826c-.292-.609-.64-1.083-1.048-1.42-.397-.349-.82-.534-1.258-.534-.124 0-.254.013-.387.038l-.086.015-.02.086c-.47 2.204-.786 3.608-.945 4.197-.16.586-.27 1.013-.328 1.282a2.286 2.286 0 0 1-.228.634v.002l-.002.004c-.092.183-.157.301-.165.313l-.01.014-.005.017c.01-.03.005-.009-.02.014a1.362 1.362 0 0 1-.12.092l-.003.002-.004.003c-.08.065-.113.093-.152.127-.268-.018-.461-.096-.59-.263-.135-.177-.215-.456-.215-.846 0-.78.311-2.069.94-3.83v-.002c.252-.688.495-1.342.725-1.961h-.002c.61-1.61.973-2.742 1.091-3.418l.002-.01v-.011c0-.376-.031-.633-.164-.801a.422.422 0 0 0-.187-.17.35.35 0 0 0-.26.004c-.123.049-.292.13-.512.246l-.002.002c-.136.076-.234.1-.338.133v-.174a.879.879 0 0 1 .149-.135c.1-.077.244-.172.426-.285.18-.113.331-.198.447-.252a.728.728 0 0 1 .224-.072c.073 0 .133.03.21.14.076.11.151.294.212.55v.001c.124.507.186 1.002.186 1.484l.258.041c.016-.05.135-.22.351-.439.216-.219.529-.501.934-.844.795-.669 1.472-1.17 2.025-1.5.553-.33.984-.484 1.266-.484zm-.086.723c.095 0 .14.022.172.058.031.036.058.104.058.223 0 .34-.202.855-.632 1.511v.002a7.943 7.943 0 0 1-2.17 2.22c-.605.402-1.154.597-1.647.597-.21 0-.409-.047-.601-.115a1.701 1.701 0 0 1-.026-.305c0-.149.09-.4.291-.723v-.002c.2-.332.449-.625.748-.88.32-.274.733-.605 1.237-.995a12.9 12.9 0 0 0 1.11-.941l.001-.002c.545-.352.926-.547 1.074-.582.204-.045.346-.067.385-.067zm-5.643 4.898-.195.244c-.447.556-.85 1.502-1.23 2.854-.381 1.35-.575 2.416-.575 3.207v.013l.004.016c.03.134.066.239.116.322.049.084.131.158.238.158a.284.284 0 0 0 .19-.08.819.819 0 0 0 .14-.173c.091-.142.186-.341.29-.604h.003c.442-1.116.765-2.475.973-4.078v-.002c.069-.495.103-.854.103-1.086 0-.22-.004-.376-.017-.48zm-.222.953c-.009.212-.03.473-.088.889-.206 1.588-.524 2.929-.955 4.017a3.487 3.487 0 0 1-.27.559.593.593 0 0 1-.093.117c-.023.02-.028.016-.014.016.015 0 .013.013-.012-.03a.972.972 0 0 1-.078-.228c.001-.747.185-1.79.56-3.123.303-1.073.627-1.681.95-2.217z" fill="none" transform="matrix(.51671 0 0 .51671 -16.139 -14.48)"/></g></g></svg>