<!-- Generated by IcoMoon.io -->
<svg version="1.1" xmlns="http://www.w3.org/2000/svg" width="26" height="26" viewBox="0 0 26 26">
<g id="icomoon-ignore">
</g>
<path fill="#61dafb" d="M12.8 10.518c-1.26 0-2.282 1.022-2.282 2.282s1.022 2.282 2.282 2.282v0c1.26 0 2.282-1.022 2.282-2.282s-1.022-2.282-2.282-2.282v0zM6.409 17.339l-0.503-0.128c-3.753-0.948-5.905-2.558-5.905-4.415s2.153-3.467 5.905-4.415l0.503-0.127 0.142 0.499c0.436 1.488 0.93 2.754 1.519 3.966l-0.065-0.149 0.108 0.227-0.108 0.227c-0.525 1.064-1.020 2.329-1.409 3.641l-0.045 0.176zM5.671 9.547c-2.852 0.801-4.603 2.027-4.603 3.249 0 1.221 1.75 2.447 4.603 3.249 0.409-1.296 0.837-2.372 1.33-3.411l-0.069 0.161c-0.425-0.879-0.853-1.954-1.209-3.062l-0.052-0.187zM19.191 17.339l-0.142-0.5c-0.435-1.487-0.93-2.753-1.52-3.963l0.065 0.148-0.108-0.227 0.108-0.227c0.525-1.063 1.020-2.329 1.41-3.64l0.045-0.177 0.142-0.499 0.505 0.127c3.751 0.948 5.904 2.558 5.904 4.416s-2.153 3.467-5.904 4.415zM18.668 12.796c0.512 1.108 0.935 2.197 1.261 3.249 2.853-0.802 4.603-2.028 4.603-3.249 0-1.222-1.75-2.447-4.603-3.249-0.409 1.295-0.836 2.371-1.329 3.409l0.068-0.16zM5.664 9.541l-0.142-0.498c-1.055-3.718-0.735-6.383 0.878-7.313 1.582-0.913 4.122 0.165 6.783 2.897l0.363 0.372-0.363 0.372c-0.917 0.952-1.766 1.985-2.529 3.083l-0.054 0.082-0.144 0.206-0.251 0.021c-1.5 0.121-2.877 0.351-4.212 0.688l0.174-0.037zM7.686 2.469c-0.286 0-0.539 0.062-0.752 0.185-1.060 0.611-1.248 2.736-0.517 5.603 0.968-0.228 2.145-0.417 3.344-0.527l0.105-0.008c0.715-1.011 1.434-1.896 2.205-2.731l-0.016 0.018c-1.664-1.62-3.239-2.54-4.368-2.54zM17.915 24.189c-0.001 0-0.001 0 0 0-1.52 0-3.472-1.145-5.498-3.225l-0.363-0.372 0.363-0.372c0.917-0.952 1.765-1.986 2.528-3.083l0.054-0.082 0.144-0.206 0.25-0.021c1.5-0.12 2.878-0.35 4.213-0.687l-0.174 0.037 0.503-0.127 0.143 0.499c1.053 3.716 0.734 6.382-0.879 7.311-0.359 0.207-0.79 0.329-1.25 0.329-0.013 0-0.025-0-0.038-0l0.002 0zM13.546 20.582c1.664 1.62 3.239 2.54 4.368 2.54h0.001c0.285 0 0.539-0.062 0.751-0.185 1.060-0.611 1.249-2.737 0.517-5.604-0.969 0.228-2.146 0.417-3.346 0.527l-0.104 0.008c-0.714 1.012-1.432 1.897-2.204 2.732l0.016-0.018zM19.936 9.541l-0.503-0.127c-1.162-0.301-2.54-0.531-3.951-0.645l-0.088-0.006-0.25-0.021-0.144-0.206c-0.817-1.18-1.665-2.213-2.59-3.173l0.007 0.008-0.363-0.372 0.363-0.372c2.66-2.731 5.199-3.809 6.783-2.897 1.613 0.93 1.933 3.595 0.879 7.312zM15.733 7.723c1.218 0.111 2.375 0.291 3.45 0.534 0.732-2.867 0.543-4.992-0.517-5.603-1.054-0.609-3.035 0.324-5.12 2.355 0.755 0.817 1.473 1.702 2.132 2.632l0.055 0.082zM7.686 24.189c-0.011 0-0.024 0-0.037 0-0.459 0-0.89-0.122-1.262-0.335l0.012 0.007c-1.613-0.929-1.933-3.594-0.878-7.311l0.141-0.499 0.503 0.127c1.232 0.31 2.591 0.529 4.037 0.65l0.251 0.021 0.143 0.206c0.818 1.18 1.667 2.213 2.591 3.174l-0.008-0.008 0.363 0.372-0.363 0.372c-2.025 2.080-3.977 3.225-5.494 3.225zM6.417 17.333c-0.732 2.867-0.543 4.993 0.517 5.604 1.053 0.601 3.033-0.325 5.12-2.355-0.755-0.818-1.473-1.703-2.133-2.632l-0.056-0.082c-1.303-0.117-2.479-0.306-3.628-0.569l0.179 0.035zM12.8 18.003c-0.878 0-1.78-0.038-2.684-0.113l-0.251-0.021-0.144-0.206c-0.435-0.614-0.911-1.353-1.357-2.111l-0.083-0.152c-0.362-0.606-0.777-1.385-1.16-2.182l-0.084-0.194-0.107-0.227 0.107-0.227c0.467-0.991 0.882-1.77 1.326-2.529l-0.083 0.152c0.442-0.764 0.927-1.525 1.44-2.263l0.144-0.206 0.251-0.021c0.804-0.072 1.739-0.114 2.684-0.114s1.88 0.041 2.804 0.122l-0.12-0.008 0.25 0.021 0.143 0.206c0.941 1.333 1.836 2.854 2.602 4.448l0.083 0.192 0.108 0.227-0.108 0.227c-0.846 1.785-1.741 3.306-2.751 4.74l0.067-0.1-0.143 0.206-0.25 0.021c-0.903 0.075-1.807 0.113-2.685 0.113zM10.457 16.847c1.579 0.118 3.108 0.118 4.688 0 0.803-1.156 1.583-2.483 2.262-3.869l0.081-0.182c-0.757-1.566-1.537-2.894-2.41-4.152l0.066 0.101c-0.701-0.057-1.519-0.089-2.343-0.089s-1.642 0.032-2.45 0.096l0.107-0.007c-0.807 1.158-1.587 2.485-2.264 3.872l-0.079 0.18c0.761 1.568 1.541 2.895 2.411 4.155l-0.068-0.104z"></path>
</svg>
